<?xml version="1.0" standalone="no"?>
<!DOCTYPE svg PUBLIC "-//W3C//DTD SVG 20010904//EN"
 "http://www.w3.org/TR/2001/REC-SVG-20010904/DTD/svg10.dtd">
<svg version="1.0" xmlns="http://www.w3.org/2000/svg"
 width="840.000000pt" height="592.000000pt" viewBox="0 0 840.000000 592.000000"
 preserveAspectRatio="xMidYMid meet">

<g transform="translate(0.000000,592.000000) scale(0.100000,-0.100000)"
fill="#000000" stroke="none">
<path d="M2880 5011 l0 -369 -92 -53 c-217 -124 -574 -331 -581 -338 -4 -4 -6
-107 -5 -229 l3 -221 175 101 c96 55 180 102 187 105 11 4 13 -151 13 -817 l0
-823 38 6 c20 4 64 9 97 12 33 4 70 8 83 11 l22 4 0 878 0 878 679 392 c374
216 686 394 694 398 8 3 75 -30 148 -72 74 -43 217 -126 319 -184 179 -103
408 -235 750 -433 l165 -95 3 -1024 2 -1023 35 -22 c30 -20 40 -22 86 -13 28
6 67 10 85 10 l34 0 2 964 3 964 180 -104 c99 -57 183 -104 187 -104 5 0 8
100 8 223 l-1 222 -781 450 c-429 248 -866 499 -970 559 -174 100 -193 109
-241 109 -64 0 -56 4 -517 -262 l-365 -211 -3 240 -2 240 -220 0 -220 0 0
-369z"/>
<path d="M4098 4340 c-27 -21 -28 -25 -28 -110 0 -109 -13 -128 -112 -160
-279 -90 -419 -375 -305 -625 59 -128 198 -225 449 -313 124 -44 199 -85 240
-130 74 -82 55 -183 -45 -238 -46 -25 -64 -29 -160 -32 -123 -5 -191 6 -325
51 -135 45 -139 43 -177 -106 -22 -87 -27 -122 -19 -135 24 -39 170 -89 325
-111 99 -14 106 -22 116 -146 7 -92 10 -100 33 -112 32 -16 158 -16 190 0 24
12 25 17 30 124 6 129 14 144 88 163 230 57 392 252 392 471 0 254 -118 385
-470 517 -268 100 -339 172 -284 288 20 42 96 81 175 90 73 8 215 -11 308 -42
79 -26 114 -25 130 4 5 9 21 61 35 115 29 109 26 126 -22 151 -38 19 -132 43
-222 56 -100 14 -107 22 -112 125 -4 111 -12 119 -121 123 -72 3 -85 1 -109
-18z"/>
<path d="M2680 2175 c-195 -33 -394 -103 -605 -214 l-130 -68 -3 -511 c-1
-323 1 -512 7 -512 6 0 110 31 233 69 123 38 249 74 282 81 95 20 161 1 355
-98 430 -221 512 -246 1111 -338 372 -57 346 -59 725 60 478 150 705 244 1014
420 179 102 604 363 673 413 135 98 153 253 37 330 -38 25 -51 28 -128 28 -77
0 -97 -5 -192 -43 -58 -23 -108 -42 -112 -42 -4 0 -7 11 -7 24 0 32 -36 75
-76 92 -68 28 -141 18 -286 -41 -14 -5 -18 -2 -18 14 0 39 -56 89 -114 102
-110 24 -178 3 -456 -143 -102 -53 -197 -102 -212 -109 -37 -16 -35 -22 10
-38 117 -41 219 -130 253 -220 51 -135 -12 -314 -137 -387 -59 -35 -167 -44
-559 -45 -346 -1 -458 11 -637 71 -241 81 -349 171 -454 380 -19 39 -34 73
-32 75 2 2 59 -31 128 -72 247 -149 447 -229 641 -257 116 -17 512 -21 712 -7
97 7 110 10 133 33 32 31 41 92 24 153 -28 99 -122 143 -406 189 -267 44 -287
48 -350 71 -81 29 -137 62 -206 125 -244 218 -520 365 -777 414 -100 19 -332
20 -441 1z"/>
</g>
</svg>
